<?xml version="1.0" encoding="us-ascii" standalone="no"?><svg xmlns="http://www.w3.org/2000/svg" xmlns:xlink="http://www.w3.org/1999/xlink" contentStyleType="text/css" height="825px" preserveAspectRatio="none" style="width:787px;height:825px;background:#FFFFFF;" version="1.1" viewBox="0 0 787 825" width="787px" zoomAndPan="magnify"><defs/><g><text fill="#000000" font-family="sans-serif" font-size="14" font-weight="bold" lengthAdjust="spacing" textLength="266" x="253.5" y="22.9951">TODOs to rearrange concept map</text><g id="elem_basicSyntax"><rect fill="#008000" height="44.5938" style="stroke:#181818;stroke-width:0.5;" width="95" x="451.5" y="44.2969"/><text fill="#000000" font-family="sans-serif" font-size="14" lengthAdjust="spacing" textLength="81" x="458.5" y="59.292">basicSyntax</text><line style="stroke:#181818;stroke-width:0.5;" x1="452.5" x2="545.5" y1="64.5938" y2="64.5938"/><text fill="#000000" font-family="sans-serif" font-size="14" lengthAdjust="spacing" textLength="53" x="457.5" y="81.5889">lasagna</text></g><g id="elem_booleans"><rect fill="#F1F1F1" height="44.5938" style="stroke:#181818;stroke-width:0.5;" width="144" x="503" y="165.8969"/><text fill="#000000" font-family="sans-serif" font-size="14" lengthAdjust="spacing" textLength="64" x="543" y="180.892">booleans</text><line style="stroke:#181818;stroke-width:0.5;" x1="504" x2="646" y1="186.1938" y2="186.1938"/><text fill="#000000" font-family="sans-serif" font-size="14" lengthAdjust="spacing" textLength="132" x="509" y="203.1889">annalyns-infiltration</text></g><g id="elem_floatingPointNumbers"><rect fill="#F1F1F1" height="44.5938" style="stroke:#181818;stroke-width:0.5;" width="162" x="306" y="165.8969"/><text fill="#000000" font-family="sans-serif" font-size="14" lengthAdjust="spacing" textLength="148" x="313" y="180.892">floatingPointNumbers</text><line style="stroke:#181818;stroke-width:0.5;" x1="307" x2="467" y1="186.1938" y2="186.1938"/><text fill="#000000" font-family="sans-serif" font-size="14" lengthAdjust="spacing" textLength="53" x="312" y="203.1889">pizza-pi</text></g><g id="elem_integers"><rect fill="#F1F1F1" height="44.5938" style="stroke:#181818;stroke-width:0.5;" width="71" x="129.5" y="165.8969"/><text fill="#000000" font-family="sans-serif" font-size="14" lengthAdjust="spacing" textLength="57" x="136.5" y="180.892">integers</text><line style="stroke:#181818;stroke-width:0.5;" x1="130.5" x2="199.5" y1="186.1938" y2="186.1938"/><text fill="#000000" font-family="sans-serif" font-size="14" lengthAdjust="spacing" textLength="53" x="135.5" y="203.1889">pizza-pi</text></g><g id="elem_strings"><rect fill="#F1F1F1" height="44.5938" style="stroke:#181818;stroke-width:0.5;" width="98" x="682" y="165.8969"/><text fill="#000000" font-family="sans-serif" font-size="14" lengthAdjust="spacing" textLength="47" x="707.5" y="180.892">strings</text><line style="stroke:#181818;stroke-width:0.5;" x1="683" x2="779" y1="186.1938" y2="186.1938"/><text fill="#000000" font-family="sans-serif" font-size="14" lengthAdjust="spacing" textLength="86" x="688" y="203.1889">sweethearts</text></g><g id="elem_arithmeticOperators"><rect fill="#F1F1F1" height="44.5938" style="stroke:#181818;stroke-width:0.5;" width="151" x="89.5" y="287.4869"/><text fill="#000000" font-family="sans-serif" font-size="14" lengthAdjust="spacing" textLength="137" x="96.5" y="302.482">arithmeticOperators</text><line style="stroke:#181818;stroke-width:0.5;" x1="90.5" x2="239.5" y1="307.7837" y2="307.7837"/><text fill="#000000" font-family="sans-serif" font-size="14" lengthAdjust="spacing" textLength="53" x="95.5" y="324.7789">pizza-pi</text></g><g id="elem_arrays"><rect fill="#F1F1F1" height="44.5938" style="stroke:#181818;stroke-width:0.5;" width="100" x="404" y="287.4869"/><text fill="#000000" font-family="sans-serif" font-size="14" lengthAdjust="spacing" textLength="41" x="433.5" y="302.482">arrays</text><line style="stroke:#181818;stroke-width:0.5;" x1="405" x2="503" y1="307.7837" y2="307.7837"/><text fill="#000000" font-family="sans-serif" font-size="14" lengthAdjust="spacing" textLength="88" x="410" y="324.7789">language-list</text></g><g id="elem_userDefinedFunctions"><rect fill="#F1F1F1" height="44.5938" style="stroke:#181818;stroke-width:0.5;" width="167" x="334.5" y="409.0769"/><text fill="#000000" font-family="sans-serif" font-size="14" lengthAdjust="spacing" textLength="153" x="341.5" y="424.072">userDefinedFunctions</text><line style="stroke:#181818;stroke-width:0.5;" x1="335.5" x2="500.5" y1="429.3738" y2="429.3738"/><text fill="#000000" font-family="sans-serif" font-size="14" lengthAdjust="spacing" textLength="7" x="340.5" y="446.3689">?</text></g><g id="elem_GMN10"><path d="M142.5,418.8169 L142.5,443.9497 A0,0 0 0 0 142.5,443.9497 L299.5,443.9497 A0,0 0 0 0 299.5,443.9497 L299.5,436.8169 L334.02,431.3769 L299.5,428.8169 L299.5,428.8169 L289.5,418.8169 L142.5,418.8169 A0,0 0 0 0 142.5,418.8169 " fill="#90EE90" style="stroke:#181818;stroke-width:0.5;"/><path d="M289.5,418.8169 L289.5,428.8169 L299.5,428.8169 L289.5,418.8169 " fill="#90EE90" style="stroke:#181818;stroke-width:0.5;"/><text fill="#000000" font-family="sans-serif" font-size="13" lengthAdjust="spacing" textLength="136" x="148.5" y="435.8838">new concept inserted</text></g><g id="elem_variableLengthArguments"><rect fill="#F1F1F1" height="44.5938" style="stroke:#181818;stroke-width:0.5;" width="190" x="123" y="530.6769"/><text fill="#000000" font-family="sans-serif" font-size="14" lengthAdjust="spacing" textLength="176" x="130" y="545.672">variableLengthArguments</text><line style="stroke:#181818;stroke-width:0.5;" x1="124" x2="312" y1="550.9738" y2="550.9738"/><text fill="#000000" font-family="sans-serif" font-size="14" lengthAdjust="spacing" textLength="88" x="129" y="567.9689">language-list</text></g><g id="elem_classBasics"><rect fill="#F1F1F1" height="44.5938" style="stroke:#181818;stroke-width:0.5;" width="140" x="348" y="530.6769"/><text fill="#000000" font-family="sans-serif" font-size="14" lengthAdjust="spacing" textLength="80" x="378" y="545.672">classBasics</text><line style="stroke:#181818;stroke-width:0.5;" x1="349" x2="487" y1="550.9738" y2="550.9738"/><text fill="#000000" font-family="sans-serif" font-size="14" lengthAdjust="spacing" textLength="128" x="354" y="567.9689">windowing-system</text></g><g id="elem_typeDeclaration"><rect fill="#F1F1F1" height="44.5938" style="stroke:#181818;stroke-width:0.5;" width="122" x="256" y="652.2669"/><text fill="#000000" font-family="sans-serif" font-size="14" lengthAdjust="spacing" textLength="108" x="263" y="667.262">typeDeclaration</text><line style="stroke:#181818;stroke-width:0.5;" x1="257" x2="377" y1="672.5637" y2="672.5637"/><text fill="#000000" font-family="sans-serif" font-size="14" lengthAdjust="spacing" textLength="65" x="262" y="689.5589">city-office</text></g><g id="elem_typeJuggling"><rect fill="#F1F1F1" height="44.5938" style="stroke:#181818;stroke-width:0.5;" width="114" x="260" y="773.8669"/><text fill="#000000" font-family="sans-serif" font-size="14" lengthAdjust="spacing" textLength="84" x="275" y="788.862">typeJuggling</text><line style="stroke:#181818;stroke-width:0.5;" x1="261" x2="373" y1="794.1637" y2="794.1637"/><text fill="#000000" font-family="sans-serif" font-size="14" lengthAdjust="spacing" textLength="102" x="266" y="811.1589">lucky-numbers</text></g><g id="elem_exerciseNeeded"><path d="M96,46.4669 L96,86.7325 L222,86.7325 L222,56.4669 L212,46.4669 L96,46.4669 " fill="#FF0000" style="stroke:#181818;stroke-width:0.5;"/><path d="M212,46.4669 L212,56.4669 L222,56.4669 L212,46.4669 " fill="#FF0000" style="stroke:#181818;stroke-width:1.0;"/><text fill="#000000" font-family="sans-serif" font-size="13" lengthAdjust="spacing" textLength="80" x="102" y="63.5338">new concept</text><text fill="#000000" font-family="sans-serif" font-size="13" lengthAdjust="spacing" textLength="105" x="102" y="78.6666">exercise needed</text></g><!--link exerciseNeeded to floatingPointNumbers--><g id="link_exerciseNeeded_floatingPointNumbers"><path codeLine="47" d="M209.75,87.1869 C231.45,96.0969 256.84,107.2469 279,118.8969 C305.71,132.9269 334.52,151.3269 355.66,165.4969 " fill="none" id="exerciseNeeded-floatingPointNumbers" style="stroke:#181818;stroke-width:1.0;stroke-dasharray:7.0,7.0;"/></g><!--link exerciseNeeded to integers--><g id="link_exerciseNeeded_integers"><path codeLine="48" d="M159.98,87.0769 C161.06,108.6569 162.8,143.3469 163.92,165.6969 " fill="none" id="exerciseNeeded-integers" style="stroke:#181818;stroke-width:1.0;stroke-dasharray:7.0,7.0;"/></g><!--link exerciseNeeded to arithmeticOperators--><g id="link_exerciseNeeded_arithmeticOperators"><path codeLine="49" d="M145.1,87.2169 C127.49,114.5169 100.69,165.6669 112,210.4869 C119.16,238.8769 136.32,267.9769 149.18,287.0669 " fill="none" id="exerciseNeeded-arithmeticOperators" style="stroke:#181818;stroke-width:1.0;stroke-dasharray:7.0,7.0;"/></g><!--link exerciseNeeded to arrays--><g id="link_exerciseNeeded_arrays"><path codeLine="50" d="M195.81,87.2169 C208.48,95.5269 221.78,106.2369 231,118.8969 C269.05,171.1269 228.66,212.4369 275,257.4869 C309.31,290.8369 363.77,302.7669 403.62,306.9069 " fill="none" id="exerciseNeeded-arrays" style="stroke:#181818;stroke-width:1.0;stroke-dasharray:7.0,7.0;"/></g><!--link exerciseNeeded to variableLengthArguments--><g id="link_exerciseNeeded_variableLengthArguments"><path codeLine="51" d="M99.41,87.2269 C56.45,105.5569 6,137.6269 6,187.1869 C6,187.1869 6,187.1869 6,432.3769 C6,490.0569 66.27,520.2269 122.54,535.8269 " fill="none" id="exerciseNeeded-variableLengthArguments" style="stroke:#181818;stroke-width:1.0;stroke-dasharray:7.0,7.0;"/></g><!--link basicSyntax to booleans--><g id="link_basicSyntax_booleans"><path codeLine="53" d="M512.76,89.2569 C525.51,109.3169 544.52,139.2169 558.17,160.6969 " fill="none" id="basicSyntax-to-booleans" style="stroke:#181818;stroke-width:1.0;"/><polygon fill="#181818" points="561.34,164.6969,559.8764,154.9574,558.6528,160.4803,553.1299,159.2568,561.34,164.6969" style="stroke:#181818;stroke-width:1.0;"/><text fill="#000000" font-family="sans-serif" font-size="13" lengthAdjust="spacing" textLength="11" x="542" y="131.9638">&#10003;</text></g><!--link basicSyntax to floatingPointNumbers--><g id="link_basicSyntax_floatingPointNumbers"><path codeLine="54" d="M478.72,89.2569 C459.69,109.5769 431.21,139.9769 411.05,161.5169 " fill="none" id="basicSyntax-to-floatingPointNumbers" style="stroke:#181818;stroke-width:1.0;"/><polygon fill="#181818" points="408.13,164.6969,417.1956,160.8479,411.5421,161.0421,411.3479,155.3886,408.13,164.6969" style="stroke:#181818;stroke-width:1.0;"/><text fill="#000000" font-family="sans-serif" font-size="13" lengthAdjust="spacing" textLength="11" x="450" y="131.9638">&#10003;</text></g><!--link basicSyntax to integers--><g id="link_basicSyntax_integers"><path codeLine="55" d="M451.15,84.7369 C385.49,108.2469 268.55,150.1169 206.44,172.3569 " fill="none" id="basicSyntax-to-integers" style="stroke:#181818;stroke-width:1.0;"/><polygon fill="#181818" points="201.97,174.3069,211.7913,175.043,206.6781,172.6234,209.0977,167.5101,201.97,174.3069" style="stroke:#181818;stroke-width:1.0;"/><text fill="#000000" font-family="sans-serif" font-size="13" lengthAdjust="spacing" textLength="11" x="353" y="131.9638">&#10003;</text></g><!--link basicSyntax to strings--><g id="link_basicSyntax_strings"><path codeLine="56" d="M541.28,89.3969 C581.52,110.1369 641.95,141.2869 683.75,162.8369 " fill="none" id="basicSyntax-to-strings" style="stroke:#181818;stroke-width:1.0;"/><polygon fill="#181818" points="688.01,165.5469,681.8564,157.857,683.5697,163.2482,678.1786,164.9615,688.01,165.5469" style="stroke:#181818;stroke-width:1.0;"/><text fill="#000000" font-family="sans-serif" font-size="13" lengthAdjust="spacing" textLength="11" x="629" y="131.9638">&#10003;</text></g><!--link floatingPointNumbers to arithmeticOperators--><g id="link_floatingPointNumbers_arithmeticOperators"><path codeLine="58" d="M346.54,210.9869 C308.12,231.6869 250.45,262.7569 210.46,284.2969 " fill="none" id="floatingPointNumbers-to-arithmeticOperators" style="stroke:#181818;stroke-width:1.0;"/><polygon fill="#181818" points="206.18,287.1369,216.0004,286.3881,210.5814,284.7647,212.2048,279.3458,206.18,287.1369" style="stroke:#181818;stroke-width:1.0;"/><text fill="#000000" font-family="sans-serif" font-size="13" lengthAdjust="spacing" textLength="11" x="291" y="253.5538">+</text></g><!--link integers to arithmeticOperators--><g id="link_integers_arithmeticOperators"><path codeLine="59" d="M165,210.8469 C165,230.6569 165,260.0569 165,281.4769 " fill="none" id="integers-to-arithmeticOperators" style="stroke:#181818;stroke-width:1.0;"/><polygon fill="#181818" points="165,286.2869,169,277.2869,165,281.2869,161,277.2869,165,286.2869" style="stroke:#181818;stroke-width:1.0;"/><text fill="#000000" font-family="sans-serif" font-size="13" lengthAdjust="spacing" textLength="11" x="166" y="253.5538">+</text></g><!--link strings to arrays--><g id="link_strings_arrays"><path codeLine="60" d="M681.8,210.4369 C633.5,231.2869 559.94,263.0469 509.56,284.7969 " fill="none" id="strings-to-arrays" style="stroke:#181818;stroke-width:1.0;"/><polygon fill="#181818" points="505.15,287.1369,514.9984,287.2312,509.7383,285.15,511.8195,279.8899,505.15,287.1369" style="stroke:#181818;stroke-width:1.0;"/><text fill="#000000" font-family="sans-serif" font-size="13" lengthAdjust="spacing" textLength="11" x="610" y="253.5538">&#10003;</text></g><!--link arithmeticOperators to userDefinedFunctions--><g id="link_arithmeticOperators_userDefinedFunctions"><path codeLine="62" d="M211.11,332.5769 C255.16,353.4069 321.43,384.7269 367.03,406.2869 " fill="none" id="arithmeticOperators-to-userDefinedFunctions" style="stroke:#181818;stroke-width:1.0;"/><polygon fill="#181818" points="371.21,408.7369,364.7755,401.2805,366.6875,406.6044,361.3636,408.5165,371.21,408.7369" style="stroke:#181818;stroke-width:1.0;"/><text fill="#000000" font-family="sans-serif" font-size="13" lengthAdjust="spacing" textLength="11" x="308" y="375.1438">+</text></g><!--link arithmeticOperators to classBasics--><g id="link_arithmeticOperators_classBasics"><path codeLine="63" d="M145.09,332.3969 C120.31,362.0169 84.41,415.8369 112,453.6769 C125.95,472.8169 255.98,509.7969 341.99,532.5469 " fill="none" id="arithmeticOperators-to-classBasics" style="stroke:#181818;stroke-width:1.0;"/><polygon fill="#181818" points="346.59,534.0169,338.9052,527.857,341.7548,532.7437,336.8681,535.5933,346.59,534.0169" style="stroke:#181818;stroke-width:1.0;"/><text fill="#000000" font-family="sans-serif" font-size="13" lengthAdjust="spacing" textLength="11" x="113" y="435.9438">+</text></g><!--link arrays to userDefinedFunctions--><g id="link_arrays_userDefinedFunctions"><path codeLine="64" d="M447.48,332.4469 C441.49,352.3369 432.59,381.9069 426.14,403.3469 " fill="none" id="arrays-to-userDefinedFunctions" style="stroke:#181818;stroke-width:1.0;"/><polygon fill="#181818" points="424.47,407.8869,430.8977,400.4246,425.9133,403.0997,423.2382,398.1154,424.47,407.8869" style="stroke:#181818;stroke-width:1.0;"/><text fill="#000000" font-family="sans-serif" font-size="13" lengthAdjust="spacing" textLength="11" x="439" y="375.1438">+</text></g><!--link arrays to classBasics--><g id="link_arrays_classBasics"><path codeLine="65" d="M475.85,332.4069 C501.21,360.2569 537.34,410.2369 519,453.6769 C506.24,483.8969 479.15,509.4169 456.23,526.8869 " fill="none" id="arrays-to-classBasics" style="stroke:#181818;stroke-width:1.0;"/><polygon fill="#181818" points="452.71,530.2669,462.31,528.0669,456.71,527.2669,457.51,521.6669,452.71,530.2669" style="stroke:#181818;stroke-width:1.0;"/><text fill="#000000" font-family="sans-serif" font-size="13" lengthAdjust="spacing" textLength="11" x="524" y="435.9438">+</text></g><!--link userDefinedFunctions to variableLengthArguments--><g id="link_userDefinedFunctions_variableLengthArguments"><path codeLine="67" d="M381.78,454.0369 C347.2,474.7169 295.15,505.8369 259.05,527.4269 " fill="none" id="userDefinedFunctions-to-variableLengthArguments" style="stroke:#181818;stroke-width:1.0;"/><polygon fill="#181818" points="255.29,530.2769,265.0654,529.0764,259.5775,527.7044,260.9495,522.2164,255.29,530.2769" style="stroke:#181818;stroke-width:1.0;"/><text fill="#000000" font-family="sans-serif" font-size="13" lengthAdjust="spacing" textLength="11" x="331" y="496.7438">+</text></g><!--link userDefinedFunctions to classBasics--><g id="link_userDefinedFunctions_classBasics"><path codeLine="68" d="M418,454.0369 C418,473.8469 418,503.2469 418,524.6669 " fill="none" id="userDefinedFunctions-to-classBasics" style="stroke:#181818;stroke-width:1.0;"/><polygon fill="#181818" points="418,529.4769,422,520.4769,418,524.4769,414,520.4769,418,529.4769" style="stroke:#181818;stroke-width:1.0;"/><text fill="#000000" font-family="sans-serif" font-size="13" lengthAdjust="spacing" textLength="11" x="419" y="496.7438">+</text></g><!--link variableLengthArguments to typeDeclaration--><g id="link_variableLengthArguments_typeDeclaration"><path codeLine="70" d="M235.93,575.6269 C252.68,595.8669 277.71,626.0969 295.52,647.6169 " fill="none" id="variableLengthArguments-to-typeDeclaration" style="stroke:#181818;stroke-width:1.0;"/><polygon fill="#181818" points="299.21,651.0669,296.5455,641.5853,296.0189,647.2176,290.3867,646.691,299.21,651.0669" style="stroke:#181818;stroke-width:1.0;"/><text fill="#000000" font-family="sans-serif" font-size="13" lengthAdjust="spacing" textLength="11" x="275" y="618.3338">+</text></g><!--link classBasics to typeDeclaration--><g id="link_classBasics_typeDeclaration"><path codeLine="71" d="M399.71,575.6269 C382.62,595.8669 357.09,626.0969 338.91,647.6169 " fill="none" id="classBasics-to-typeDeclaration" style="stroke:#181818;stroke-width:1.0;"/><polygon fill="#181818" points="335.15,651.0669,344.0098,646.7653,338.3733,647.2445,337.8941,641.608,335.15,651.0669" style="stroke:#181818;stroke-width:1.0;"/><text fill="#000000" font-family="sans-serif" font-size="13" lengthAdjust="spacing" textLength="11" x="375" y="618.3338">&#10003;</text></g><!--link typeDeclaration to typeJuggling--><g id="link_typeDeclaration_typeJuggling"><path codeLine="73" d="M317,697.2269 C317,717.0369 317,746.4369 317,767.8469 " fill="none" id="typeDeclaration-to-typeJuggling" style="stroke:#181818;stroke-width:1.0;"/><polygon fill="#181818" points="317,772.6669,321,763.6669,317,767.6669,313,763.6669,317,772.6669" style="stroke:#181818;stroke-width:1.0;"/><text fill="#000000" font-family="sans-serif" font-size="13" lengthAdjust="spacing" textLength="11" x="318" y="739.9338">&#10003;</text></g><!--SRC=[XPCxRXin48PxdeAGIcDz01Kn4WWfWi0A49TfAEuinOGxN92paTT6Jf4sfyj9meVs0OdhD2ncllydvq7IP81ldWxxW-TakGFXd405N5gKq15lHRTXp1w_WoH-55xBhmEIUEPRvG2GlpBEZV12eM2_Pj1Q0m9zIWj4OGRqbSP66tA2jCK0NzZ6s111zSLgfCU-FOBBkaw_l8YgqpCQ053hQKyk-EIiFmFGAPH3VWQ4qtHgWRGyT13UOM-jPjI9mL_AGzKB1PNHdXP8xy7jeT48zSSUPQmg2nu2X9Q06sY8RurM9qhTsd64yzHQZS60e1xzVeRdYQE1pu2AJk-Twbj0UliDClJUVuXZoTnPOst3eIe_U89sWTBGmHw280yWuLBJKDccqHBcBaNmKw-K2JRvybx-62hCeucEgRZDefPl2C_WfFOGAeGQwWqNde-nnnJYMnTglOhTtnVdNy36sHTIXR4MgJZHGcAbxumjrxsgtirRlUD___o-IHSNkOnEYrnEZukSiwne7BdIFk_u7PlituB6IpAJjlroNqaHgUB2HwirmN8xCvUk-O_Nn5pBML4KoRMl4rMheXlxDPS8N_-UA5WQb9dKpklmY4v_B77_0000]--></g></svg>